<!-- Generated by IcoMoon.io -->
<svg version="1.1" xmlns="http://www.w3.org/2000/svg" width="64" height="32" viewBox="0 0 64 64">
<title>x</title>
<path fill="#fc9dbd" d="M14.115 17.885l14.115 14.115-14.115 14.115c-1.043 1.043-1.043 2.731 0 3.771s2.731 1.043 3.771 0l14.115-14.115 14.115 14.115c1.043 1.043 2.731 1.043 3.771 0s1.043-2.731 0-3.771l-14.115-14.115 14.115-14.115c1.043-1.043 1.043-2.731 0-3.771s-2.731-1.043-3.771 0l-14.115 14.115-14.115-14.115c-1.043-1.043-2.731-1.043-3.771 0s-1.043 2.731 0 3.771z"></path>
</svg>
